<svg aria-hidden="true" style="position: absolute; width: 0; height: 0; overflow: hidden;" version="1.1"
  xmlns="http://www.w3.org/2000/svg"
  xmlns:xlink="http://www.w3.org/1999/xlink">
  <defs>
    <symbol id="icon-dev" viewBox="0 0 50 50">
      <path d="M13.406,21.925a2.167,2.167,0,0,0-1.3-.485H10.16V33.1h1.948a2.167,2.167,0,0,0,1.3-.485,1.7,1.7,0,0,0,.65-1.458V23.383a1.711,1.711,0,0,0-.651-1.458ZM45.1,2.25H4.9A4.9,4.9,0,0,0,0,7.138V47.362A4.9,4.9,0,0,0,4.9,52.25H45.1A4.9,4.9,0,0,0,50,47.362V7.138A4.9,4.9,0,0,0,45.1,2.25ZM17.21,31.177a5.1,5.1,0,0,1-5.4,5.273H6.634V17.984h5.288a5.1,5.1,0,0,1,5.287,5.277Zm11.237-9.9H22.5V25.57h3.635v3.3H22.5v4.287h5.948v3.3h-6.94a2.255,2.255,0,0,1-2.312-2.2V20.3a2.257,2.257,0,0,1,2.2-2.309h7.052ZM40.013,34.15c-1.473,3.432-4.113,2.749-5.295,0l-4.3-16.161h3.635l3.316,12.692,3.3-12.692h3.636L40.013,34.15Z" transform="translate(0 -2.25)" fill="#fff"/>
    </symbol>
    <symbol id="icon-git" viewBox="0 0 50 50">
      <path d="M44.643,2.25H5.357A5.359,5.359,0,0,0,0,7.607V46.893A5.359,5.359,0,0,0,5.357,52.25H44.643A5.359,5.359,0,0,0,50,46.893V7.607A5.359,5.359,0,0,0,44.643,2.25ZM30.949,45.074c-.937.167-1.283-.413-1.283-.893,0-.6.022-3.683.022-6.172a4.348,4.348,0,0,0-1.261-3.426c4.129-.458,8.482-1.027,8.482-8.158A5.73,5.73,0,0,0,35,22.071a6.98,6.98,0,0,0-.19-5.022c-1.551-.48-5.1,2-5.1,2a17.557,17.557,0,0,0-9.286,0s-3.549-2.478-5.1-2a6.926,6.926,0,0,0-.19,5.022,5.605,5.605,0,0,0-1.741,4.353c0,7.1,4.163,7.7,8.292,8.158A4.045,4.045,0,0,0,20.5,37.071a3.916,3.916,0,0,1-5.391-1.551,3.888,3.888,0,0,0-2.846-1.908c-1.808-.022-.123,1.138-.123,1.138,1.205.558,2.054,2.7,2.054,2.7,1.083,3.315,6.261,2.2,6.261,2.2,0,1.551.022,4.074.022,4.531,0,.48-.335,1.06-1.283.893A18.516,18.516,0,0,1,6.674,27.406,17.711,17.711,0,0,1,24.754,9.382C35,9.382,43.3,17.161,43.3,27.406A18.346,18.346,0,0,1,30.949,45.074ZM20,38.254c-.212.045-.413-.045-.435-.19-.022-.167.123-.312.335-.357.212-.022.413.067.435.212S20.223,38.21,20,38.254Zm-1.06-.1c0,.145-.167.268-.391.268-.246.022-.413-.1-.413-.268,0-.145.167-.268.391-.268C18.739,37.864,18.94,37.987,18.94,38.154Zm-1.529-.123c-.045.145-.268.212-.458.145-.212-.045-.357-.212-.312-.357s.268-.212.458-.167C17.321,37.719,17.467,37.886,17.411,38.031Zm-1.373-.6c-.1.123-.312.1-.48-.067-.167-.145-.212-.357-.1-.458.1-.123.312-.1.48.067C16.083,37.116,16.138,37.339,16.038,37.429Zm-1.016-1.016c-.1.067-.29,0-.413-.167s-.123-.357,0-.435c.123-.1.313-.022.413.145a.327.327,0,0,1,0,.458ZM14.3,35.33c-.1.1-.268.045-.391-.067-.123-.145-.145-.312-.045-.391.1-.1.268-.045.391.067C14.375,35.085,14.4,35.252,14.3,35.33Zm-.748-.826a.21.21,0,0,1-.312.045c-.145-.067-.212-.19-.167-.29a.263.263,0,0,1,.312-.045C13.527,34.292,13.594,34.415,13.549,34.5Z" transform="translate(0 -2.25)" fill="#fff"/>
    </symbol>
    <symbol id="icon-insta" viewBox="0 0 50 50">
      <path d="M44.27,1.928h-33.4a8.325,8.325,0,0,0-8.3,8.3v33.4a8.325,8.325,0,0,0,8.3,8.3h33.4a8.325,8.325,0,0,0,8.3-8.3v-33.4a8.325,8.325,0,0,0-8.3-8.3ZM18.577,23.8H36.565a9.521,9.521,0,1,1-17.988,0Zm27.744,0V42.553A3.134,3.134,0,0,1,43.2,45.678H11.946a3.134,3.134,0,0,1-3.125-3.125V23.8h4.888a14.209,14.209,0,1,0,27.724,0l4.888,0Zm0-10.94a1.567,1.567,0,0,1-1.562,1.563H41.633a1.567,1.567,0,0,1-1.562-1.562V9.741a1.567,1.567,0,0,1,1.563-1.562h3.125a1.567,1.567,0,0,1,1.563,1.563Z" transform="translate(-2.571 -1.928)" fill="#fff"/>
    </symbol>
    <symbol id="icon-twit" viewBox="0 0 50 50">
      <path d="M44.643,2.25H5.357A5.359,5.359,0,0,0,0,7.607V46.893A5.359,5.359,0,0,0,5.357,52.25H44.643A5.359,5.359,0,0,0,50,46.893V7.607A5.359,5.359,0,0,0,44.643,2.25ZM39.185,19.973c.022.313.022.636.022.949,0,9.676-7.366,20.826-20.826,20.826A20.73,20.73,0,0,1,7.143,38.467a15.421,15.421,0,0,0,1.763.089,14.676,14.676,0,0,0,9.085-3.125,7.329,7.329,0,0,1-6.842-5.078,7.889,7.889,0,0,0,3.3-.134,7.32,7.32,0,0,1-5.859-7.188v-.089a7.315,7.315,0,0,0,3.3.926,7.3,7.3,0,0,1-3.259-6.094,7.228,7.228,0,0,1,.993-3.694,20.784,20.784,0,0,0,15.089,7.656A7.335,7.335,0,0,1,37.21,15.051a14.343,14.343,0,0,0,4.643-1.763,7.3,7.3,0,0,1-3.214,4.029,14.567,14.567,0,0,0,4.219-1.138A15.407,15.407,0,0,1,39.185,19.973Z" transform="translate(0 -2.25)" fill="#fff"/>
    </symbol>
    <symbol id="icon-you" viewBox="0 0 500 500">
      <path style=" stroke:none;fill-rule:nonzero;fill:rgb(100%,100%,100%);fill-opacity:1;" d="M 90 40 C 62.398438 40 40 62.398438 40 90 L 40 410 C 40 437.601562 62.398438 460 90 460 L 410 460 C 437.601562 460 460 437.601562 460 410 L 460 90 C 460 62.398438 437.601562 40 410 40 Z M 150 80 L 174.003906 80 L 190 120 L 205.996094 80 L 230 80 L 200 150 L 200 190 L 180 190 L 180 149.902344 C 174 133.800781 154.101562 90.101562 150 80 Z M 250 110 C 258.898438 110 267.699219 112.691406 273.300781 119.492188 C 277.601562 124.390625 280 132.296875 280 142.695312 L 280 157.304688 C 280 167.703125 278.007812 174.90625 273.808594 179.804688 C 268.207031 186.503906 258.898438 190 250 190 C 241.101562 190 232.007812 186.503906 226.40625 179.804688 C 222.105469 174.90625 220 167.703125 220 157.304688 L 220 142.792969 C 220 132.394531 222.300781 124.390625 226.699219 119.492188 C 232.300781 112.691406 239.898438 110 250 110 Z M 290 110 L 310 110 L 310 170 C 310.5 172.699219 313.394531 173.90625 316.09375 173.90625 C 320.195312 173.90625 325.398438 169.109375 330 163.808594 L 330 110 L 350 110 L 350 190 L 330 190 L 330 176.191406 C 321.898438 184.089844 315 190.007812 305.898438 189.707031 C 299.296875 189.507812 294.703125 187.105469 292.402344 182.304688 C 291.003906 179.503906 290 175 290 168.398438 Z M 250 126.191406 C 248.625 126.191406 247.308594 126.492188 246.113281 127.011719 C 244.917969 127.53125 243.835938 128.273438 242.929688 129.199219 C 242.023438 130.125 241.289062 131.222656 240.78125 132.441406 C 240.273438 133.660156 240 135.007812 240 136.40625 L 240 164.492188 C 240 167.292969 241.117188 169.847656 242.929688 171.699219 C 243.835938 172.625 244.917969 173.367188 246.113281 173.886719 C 247.308594 174.40625 248.625 174.707031 250 174.707031 C 251.375 174.707031 252.691406 174.40625 253.886719 173.886719 C 257.472656 172.332031 260 168.691406 260 164.492188 L 260 136.40625 C 260 130.804688 255.5 126.191406 250 126.191406 Z M 249.902344 220 L 250.097656 220 C 250.097656 220 317.191406 220.003906 361.992188 223.203125 C 368.292969 223.902344 381.902344 224.003906 394.101562 236.503906 C 403.703125 245.902344 406.796875 267.5 406.796875 267.5 C 406.796875 267.5 410 282.804688 410 308.105469 L 410 331.796875 C 410 357.097656 406.796875 372.402344 406.796875 372.402344 C 406.796875 372.402344 403.703125 394 394.101562 403.398438 C 381.902344 415.898438 368.292969 416 361.992188 416.699219 C 317.191406 419.898438 250 420 250 420 C 250 420 166.792969 419.195312 141.191406 416.796875 C 134.089844 415.496094 118.097656 415.894531 105.898438 403.496094 C 96.296875 393.996094 93.203125 372.402344 93.203125 372.402344 C 93.203125 372.402344 90 357.097656 90 331.796875 L 90 308.105469 C 90 282.804688 93.203125 267.5 93.203125 267.5 C 93.203125 267.5 96.296875 245.902344 105.898438 236.503906 C 118.097656 224.003906 131.707031 223.902344 138.007812 223.203125 C 182.808594 220.003906 249.902344 220 249.902344 220 Z M 120 260 L 120 279.785156 L 140 279.785156 L 140 380 L 160 380 L 160 279.785156 L 180 279.785156 L 180 260 Z M 250 260 L 250 380 L 270 380 L 270 367.5 C 276.308594 375.308594 284.53125 380 291.25 380 C 298.769531 380 305.332031 375.953125 307.851562 368.203125 C 309.042969 364.011719 309.921875 360.101562 310 351.25 L 310 323.75 C 310 313.871094 308.664062 306.425781 307.402344 302.226562 C 304.882812 294.417969 298.78125 290.050781 291.25 290 C 281.449219 289.929688 277.5 295 270 303.75 L 270 260 Z M 180 290 L 180 356.855469 C 180 364.074219 181.003906 368.917969 182.304688 372.089844 C 184.503906 377.230469 188.992188 380 195.390625 380 C 202.691406 380 212.101562 374.859375 220 366.347656 L 220 380 L 240 380 L 240 290 L 220 290 L 220 352.695312 C 215.601562 358.535156 209.195312 362.890625 205.195312 362.890625 C 202.59375 362.890625 200.5 361.796875 200 358.925781 L 200 290 Z M 350.292969 290 C 340.214844 290 332.339844 293.171875 326.640625 299.160156 C 322.441406 303.582031 320 310.804688 320 320.175781 L 320 350.839844 C 320 360.148438 322.683594 366.664062 326.875 371.035156 C 332.585938 377.023438 340.441406 380 350.761719 380 C 361.070312 380 369.1875 376.867188 374.648438 370.507812 C 377.046875 367.699219 378.585938 364.535156 379.257812 361.015625 C 379.4375 359.425781 380 355.109375 380 350 L 360 350 L 360 357.988281 C 360 362.628906 355.519531 366.386719 350 366.386719 C 344.480469 366.386719 340 362.617188 340 357.988281 L 340 340 L 380 340 L 380 319.785156 C 380 310.433594 377.703125 303.589844 373.574219 299.160156 C 368.042969 293.171875 360.191406 290 350.292969 290 Z M 350 304.472656 C 355.519531 304.472656 360 308.242188 360 312.871094 L 360 326.152344 L 340 326.152344 L 340 312.871094 C 340 308.230469 344.480469 304.472656 350 304.472656 Z M 282.207031 307.460938 C 287.65625 307.460938 290 310.808594 290 321.25 L 290 348.75 C 290 359.191406 287.65625 362.792969 282.207031 362.792969 C 279.097656 362.792969 273.160156 360.660156 270 357.5 L 270 313.75 C 273.160156 310.628906 279.097656 307.460938 282.207031 307.460938 Z M 282.207031 307.460938 "/>
    </symbol>
  </defs>
</svg>
