<svg aria-hidden="true" style="position: absolute; width: 0; height: 0; overflow: hidden;" version="1.1" 
  xmlns="http://www.w3.org/2000/svg" 
  xmlns:xlink="http://www.w3.org/1999/xlink">
  <defs>
    <symbol id="icon-dev" viewBox="0 0 50 50">
      <path d="M13.406,21.925a2.167,2.167,0,0,0-1.3-.485H10.16V33.1h1.948a2.167,2.167,0,0,0,1.3-.485,1.7,1.7,0,0,0,.65-1.458V23.383a1.711,1.711,0,0,0-.651-1.458ZM45.1,2.25H4.9A4.9,4.9,0,0,0,0,7.138V47.362A4.9,4.9,0,0,0,4.9,52.25H45.1A4.9,4.9,0,0,0,50,47.362V7.138A4.9,4.9,0,0,0,45.1,2.25ZM17.21,31.177a5.1,5.1,0,0,1-5.4,5.273H6.634V17.984h5.288a5.1,5.1,0,0,1,5.287,5.277Zm11.237-9.9H22.5V25.57h3.635v3.3H22.5v4.287h5.948v3.3h-6.94a2.255,2.255,0,0,1-2.312-2.2V20.3a2.257,2.257,0,0,1,2.2-2.309h7.052ZM40.013,34.15c-1.473,3.432-4.113,2.749-5.295,0l-4.3-16.161h3.635l3.316,12.692,3.3-12.692h3.636L40.013,34.15Z" transform="translate(0 -2.25)" fill="#fff"/>
    </symbol>
    <symbol id="icon-git" viewBox="0 0 50 50">
      <path d="M44.643,2.25H5.357A5.359,5.359,0,0,0,0,7.607V46.893A5.359,5.359,0,0,0,5.357,52.25H44.643A5.359,5.359,0,0,0,50,46.893V7.607A5.359,5.359,0,0,0,44.643,2.25ZM30.949,45.074c-.937.167-1.283-.413-1.283-.893,0-.6.022-3.683.022-6.172a4.348,4.348,0,0,0-1.261-3.426c4.129-.458,8.482-1.027,8.482-8.158A5.73,5.73,0,0,0,35,22.071a6.98,6.98,0,0,0-.19-5.022c-1.551-.48-5.1,2-5.1,2a17.557,17.557,0,0,0-9.286,0s-3.549-2.478-5.1-2a6.926,6.926,0,0,0-.19,5.022,5.605,5.605,0,0,0-1.741,4.353c0,7.1,4.163,7.7,8.292,8.158A4.045,4.045,0,0,0,20.5,37.071a3.916,3.916,0,0,1-5.391-1.551,3.888,3.888,0,0,0-2.846-1.908c-1.808-.022-.123,1.138-.123,1.138,1.205.558,2.054,2.7,2.054,2.7,1.083,3.315,6.261,2.2,6.261,2.2,0,1.551.022,4.074.022,4.531,0,.48-.335,1.06-1.283.893A18.516,18.516,0,0,1,6.674,27.406,17.711,17.711,0,0,1,24.754,9.382C35,9.382,43.3,17.161,43.3,27.406A18.346,18.346,0,0,1,30.949,45.074ZM20,38.254c-.212.045-.413-.045-.435-.19-.022-.167.123-.312.335-.357.212-.022.413.067.435.212S20.223,38.21,20,38.254Zm-1.06-.1c0,.145-.167.268-.391.268-.246.022-.413-.1-.413-.268,0-.145.167-.268.391-.268C18.739,37.864,18.94,37.987,18.94,38.154Zm-1.529-.123c-.045.145-.268.212-.458.145-.212-.045-.357-.212-.312-.357s.268-.212.458-.167C17.321,37.719,17.467,37.886,17.411,38.031Zm-1.373-.6c-.1.123-.312.1-.48-.067-.167-.145-.212-.357-.1-.458.1-.123.312-.1.48.067C16.083,37.116,16.138,37.339,16.038,37.429Zm-1.016-1.016c-.1.067-.29,0-.413-.167s-.123-.357,0-.435c.123-.1.313-.022.413.145a.327.327,0,0,1,0,.458ZM14.3,35.33c-.1.1-.268.045-.391-.067-.123-.145-.145-.312-.045-.391.1-.1.268-.045.391.067C14.375,35.085,14.4,35.252,14.3,35.33Zm-.748-.826a.21.21,0,0,1-.312.045c-.145-.067-.212-.19-.167-.29a.263.263,0,0,1,.312-.045C13.527,34.292,13.594,34.415,13.549,34.5Z" transform="translate(0 -2.25)" fill="#fff"/>
    </symbol>
    <symbol id="icon-insta" viewBox="0 0 50 50">
      <path d="M44.27,1.928h-33.4a8.325,8.325,0,0,0-8.3,8.3v33.4a8.325,8.325,0,0,0,8.3,8.3h33.4a8.325,8.325,0,0,0,8.3-8.3v-33.4a8.325,8.325,0,0,0-8.3-8.3ZM18.577,23.8H36.565a9.521,9.521,0,1,1-17.988,0Zm27.744,0V42.553A3.134,3.134,0,0,1,43.2,45.678H11.946a3.134,3.134,0,0,1-3.125-3.125V23.8h4.888a14.209,14.209,0,1,0,27.724,0l4.888,0Zm0-10.94a1.567,1.567,0,0,1-1.562,1.563H41.633a1.567,1.567,0,0,1-1.562-1.562V9.741a1.567,1.567,0,0,1,1.563-1.562h3.125a1.567,1.567,0,0,1,1.563,1.563Z" transform="translate(-2.571 -1.928)" fill="#fff"/>
    </symbol>
      <symbol id="icon-twit" viewBox="0 0 50 50">
      <path d="M44.643,2.25H5.357A5.359,5.359,0,0,0,0,7.607V46.893A5.359,5.359,0,0,0,5.357,52.25H44.643A5.359,5.359,0,0,0,50,46.893V7.607A5.359,5.359,0,0,0,44.643,2.25ZM39.185,19.973c.022.313.022.636.022.949,0,9.676-7.366,20.826-20.826,20.826A20.73,20.73,0,0,1,7.143,38.467a15.421,15.421,0,0,0,1.763.089,14.676,14.676,0,0,0,9.085-3.125,7.329,7.329,0,0,1-6.842-5.078,7.889,7.889,0,0,0,3.3-.134,7.32,7.32,0,0,1-5.859-7.188v-.089a7.315,7.315,0,0,0,3.3.926,7.3,7.3,0,0,1-3.259-6.094,7.228,7.228,0,0,1,.993-3.694,20.784,20.784,0,0,0,15.089,7.656A7.335,7.335,0,0,1,37.21,15.051a14.343,14.343,0,0,0,4.643-1.763,7.3,7.3,0,0,1-3.214,4.029,14.567,14.567,0,0,0,4.219-1.138A15.407,15.407,0,0,1,39.185,19.973Z" transform="translate(0 -2.25)" fill="#fff"/>
    </symbol>
  </defs>
</svg>
